<?xml version="1.0" encoding="utf-8"?>
<!-- Generator: Adobe Illustrator 16.0.0, SVG Export Plug-In . SVG Version: 6.00 Build 0)  -->
<!DOCTYPE svg PUBLIC "-//W3C//DTD SVG 1.1//EN" "http://www.w3.org/Graphics/SVG/1.1/DTD/svg11.dtd">
<svg version="1.1" id="Layer_1" xmlns="http://www.w3.org/2000/svg" xmlns:xlink="http://www.w3.org/1999/xlink" x="0px" y="0px"
	 width="729.177px" height="78.266px" viewBox="0 0 729.177 78.266" enable-background="new 0 0 729.177 78.266"
	 xml:space="preserve">
<polygon points="65.584,0.919 65.584,30.503 44.198,30.503 44.198,0.919 0,0.919 0,78.266 44.198,78.266 44.198,48.326 
	65.584,48.326 65.584,78.266 109.781,78.266 109.781,0.919 "/>
<g>
	<defs>
		<rect id="SVGID_1_" y="0" width="729.177" height="78.266"/>
	</defs>
	<clipPath id="SVGID_2_">
		<use xlink:href="#SVGID_1_"  overflow="visible"/>
	</clipPath>
	<path clip-path="url(#SVGID_2_)" fill-rule="evenodd" clip-rule="evenodd" d="M182.485,52.604c0,5.346-3.208,11.404-11.05,11.404
		c-7.842,0-11.049-6.059-11.049-11.404V0.919h-44.198v52.397c0,7.84,6.773,24.949,32.079,24.949h46.337
		c25.306,0,32.078-17.109,32.078-24.949V0.919h-44.197V52.604z"/>
	<polygon clip-path="url(#SVGID_2_)" fill-rule="evenodd" clip-rule="evenodd" points="300.463,32.286 282.999,0.92 232.384,0.92 
		232.384,78.267 273.019,78.267 273.019,45.117 291.196,78.267 309.731,78.267 327.908,45.117 327.908,78.267 368.542,78.267 
		368.542,0.92 317.928,0.92 	"/>
	<polygon clip-path="url(#SVGID_2_)" fill-rule="evenodd" clip-rule="evenodd" points="442.323,32.286 424.858,0.92 374.245,0.92 
		374.245,78.267 414.878,78.267 414.878,45.117 433.057,78.267 451.591,78.267 469.769,45.117 469.769,78.267 510.401,78.267 
		510.401,0.92 459.788,0.92 	"/>
	<polygon clip-path="url(#SVGID_2_)" fill-rule="evenodd" clip-rule="evenodd" points="515.4,78.266 601.657,78.266 601.657,56.881 
		561.023,56.881 561.023,48.326 601.657,48.326 601.657,30.503 561.023,30.503 561.023,22.307 601.657,22.307 601.657,0.919 
		515.4,0.919 	"/>
	<path clip-path="url(#SVGID_2_)" fill-rule="evenodd" clip-rule="evenodd" d="M718.566,26.583c0-9.624-6.06-25.663-23.168-25.663
		h-88.039v77.346h44.198V55.811l18.89,22.455h54.535L701.814,50.82C711.081,51.178,718.566,36.207,718.566,26.583 M663.676,36.563
		h-12.118V19.098h13.544C676.151,19.098,675.082,36.563,663.676,36.563"/>
	<path clip-path="url(#SVGID_2_)" fill-rule="evenodd" clip-rule="evenodd" d="M722.642,0c-3.559,0-6.569,2.738-6.569,6.45
		c0,3.746,3.011,6.484,6.569,6.484c3.524,0,6.535-2.738,6.535-6.484C729.177,2.737,726.166,0,722.642,0 M722.642,11.855
		c-2.96,0-5.271-2.293-5.271-5.406c0-3.062,2.311-5.372,5.271-5.372c2.926,0,5.235,2.31,5.235,5.372
		C727.877,9.563,725.567,11.855,722.642,11.855"/>
	<path clip-path="url(#SVGID_2_)" fill-rule="evenodd" clip-rule="evenodd" d="M725.618,4.859c0-1.472-0.872-2.121-2.635-2.121
		h-2.839v7.458h1.128V6.963h1.301l1.967,3.233h1.267l-2.121-3.285C724.78,6.775,725.618,6.193,725.618,4.859 M721.272,6.005v-2.31
		h1.54c0.787,0,1.626,0.171,1.626,1.095c0,1.146-0.854,1.215-1.813,1.215H721.272z"/>
</g>
</svg>
