<?xml version="1.0" encoding="utf-8"?>
<!-- Generator: Adobe Illustrator 16.0.0, SVG Export Plug-In . SVG Version: 6.00 Build 0)  -->
<!DOCTYPE svg PUBLIC "-//W3C//DTD SVG 1.1//EN" "http://www.w3.org/Graphics/SVG/1.1/DTD/svg11.dtd">
<svg version="1.1" id="Layer_1" xmlns="http://www.w3.org/2000/svg" xmlns:xlink="http://www.w3.org/1999/xlink" x="0px" y="0px"
	 width="754.568px" height="155.227px" viewBox="0 0 754.568 155.227" enable-background="new 0 0 754.568 155.227"
	 xml:space="preserve">
<polygon fill-rule="evenodd" clip-rule="evenodd" points="79.229,77.18 82.706,75.193 126.164,104.993 "/>
<polygon fill-rule="evenodd" clip-rule="evenodd" points="76.732,75.595 73.504,73.732 77.105,16.864 "/>
<polygon fill-rule="evenodd" clip-rule="evenodd" points="72.843,75.397 58.439,87.317 75.698,77.135 "/>
<g>
	<defs>
		<rect id="SVGID_1_" width="754.568" height="155.227"/>
	</defs>
	<clipPath id="SVGID_2_">
		<use xlink:href="#SVGID_1_"  overflow="visible"/>
	</clipPath>
	<path clip-path="url(#SVGID_2_)" fill-rule="evenodd" clip-rule="evenodd" d="M77.613,0C34.75,0,0,34.749,0,77.613
		c0,42.864,34.749,77.614,77.613,77.614c42.864,0,77.614-34.75,77.614-77.614C155.228,34.749,120.478,0,77.613,0 M77.621,151.085
		c-17.739,0-34.332-5.911-46.697-16.767C18.891,123.752,9.548,106.96,7.24,89.118c5.47,33.938,34.898,59.861,70.381,59.861
		c39.373,0,71.292-31.92,71.292-71.292c0-16.335-6.104-32.328-15.346-44.35c9.365,7.224,17.453,27.799,17.453,44.35
		C151.021,118.223,118.158,151.085,77.621,151.085 M70.88,72.085l6.275-64.352c0.153-0.001,0.305-0.006,0.458-0.006
		c0.054,0,0.106,0.002,0.159,0.002l0.616,67.716l10.802-6.457L78.322,7.736c38.27,0.38,69.179,31.518,69.179,69.877
		c0,12.323-3.194,23.899-8.792,33.952L90.203,70.98l-4.594,2.607l52.774,38.56c-0.132,0.231-0.267,0.463-0.402,0.693L78.636,78.7
		v12.045l58.939,22.781c-12.216,20.353-34.496,33.975-59.962,33.975c-25.44,0-47.701-13.594-59.926-33.913L76.589,90.62V78.575
		l-59.415,34.146c-0.131-0.227-0.26-0.453-0.389-0.68l52.583-38.455l-4.594-2.607L16.4,111.352
		c-5.525-10.004-8.674-21.502-8.674-33.739c0-38.057,30.424-69.01,68.276-69.866l-9.468,61.73L70.88,72.085z M77.612,4.173
		c-40.537,0-73.399,32.862-73.399,73.399c0,16.462,5.977,32.034,15.085,45.487c3.09,5.776,6.434,9.355,10.895,14.08
		c-17.479-13.963-28.79-35.457-28.79-59.567c0-42.088,34.12-76.21,76.209-76.21c42.088,0,76.858,35.608,75.607,76.207
		C152.167,37.952,117.484,4.173,77.612,4.173"/>
	<path clip-path="url(#SVGID_2_)" fill-rule="evenodd" clip-rule="evenodd" d="M418.543,82.752c0-13.613-6.016-24.649-19.231-24.649
		c-12.258,0-19.232,11.036-19.232,24.649c0,13.615,5.825,24.65,19.232,24.65c13.024,0,16.855-6.455,18.854-16.775l-4.488-0.021
		c-0.384,3.829-2.874,12.448-12.45,12.64c-10.915,0.219-11.684-13.791-11.492-20.494l0.191-3.83c0-4.214-0.383-16.664,9.769-16.664
		c8.044,0,9.193,10.343,9.193,16.664h-18.962l-0.191,3.83H418.543z"/>
	<path clip-path="url(#SVGID_2_)" fill-rule="evenodd" clip-rule="evenodd" d="M191.975,41.144l-0.191,3.065h2.873
		c2.107,0,4.788,0.191,4.788,2.872l-0.957,51.908c0,1.914-0.958,4.021-4.789,4.021h-2.873l-0.192,3.064h19.345v-3.064h-3.256
		c-2.489,0-4.213-0.766-4.213-4.021l0.957-49.8l20.686,53.63h2.107l20.878-54.204l0.957,50.374c0,1.723-1.724,4.021-4.405,4.021
		h-4.023v3.064h24.326v-3.064h-2.874c-2.106,0-4.596-1.15-4.596-3.832l-0.958-51.331c0-1.724,1.915-3.639,3.831-3.639h3.639v-3.065
		h-17.43l-18.004,47.119l-18.005-47.119H191.975z"/>
	<path clip-path="url(#SVGID_2_)" fill-rule="evenodd" clip-rule="evenodd" d="M326.713,106.118v-2.49h-1.915
		c-1.724,0-4.789-0.574-4.789-4.021V74.514c0-7.852,4.022-10.726,8.045-10.726c1.532,0,2.489,0.767,2.107,3.639
		c-0.384,2.873,2.107,4.789,4.214,4.597c2.106-0.191,4.788-0.575,4.405-5.937c-0.383-5.363-3.448-7.853-8.811-7.853
		c-4.214,0-7.661,2.681-8.619,4.022c-1.114,1.559-2.49,0.957-2.682-0.766c-0.191-1.724-0.957-3.448-2.872-2.874
		c-4.214,1.341-8.045,1.917-11.301,2.108v1.915c8.044-0.383,7.278,3.639,7.278,5.555v31.412c0,3.447-3.065,4.021-4.789,4.021h-2.681
		v2.49H326.713z"/>
	<path clip-path="url(#SVGID_2_)" fill-rule="evenodd" clip-rule="evenodd" d="M369.381,61.151
		c-2.822-2.064-6.373-3.242-10.693-3.242c-12.258,0-19.232,11.036-19.232,24.65c0,13.613,5.824,24.584,19.232,24.65
		c11.875,0.057,14.748-6.646,16.747-16.969l-4.489-0.021c-0.383,3.832-1.723,12.643-10.343,12.834
		c-10.914,0.242-11.683-13.791-11.493-20.494c0-4.215,0.576-21.069,9.769-21.069c7.854,0,12.641,5.554,12.641,11.875h2.491v-16.09
		h-2.108L369.381,61.151z"/>
	<path clip-path="url(#SVGID_2_)" fill-rule="evenodd" clip-rule="evenodd" d="M646.471,103.247
		c-10.916,0.219-11.685-13.791-11.492-20.494h28.809c0-13.613-6.016-24.649-19.231-24.649c-12.26,0-19.233,11.036-19.233,24.649
		c0,13.615,5.824,24.65,19.233,24.65c13.023,0,16.854-6.455,18.854-16.775l-4.489-0.021
		C658.537,94.436,656.047,103.055,646.471,103.247 M644.938,62.259c8.045,0,9.194,10.343,9.194,16.664H635.17
		C635.17,74.708,634.786,62.259,644.938,62.259"/>
	<path clip-path="url(#SVGID_2_)" fill-rule="evenodd" clip-rule="evenodd" d="M489.006,103.247
		c-10.915,0.219-11.684-13.791-11.491-20.494h28.808c0-13.613-6.016-24.649-19.231-24.649c-12.258,0-19.231,11.036-19.231,24.649
		c0,13.615,5.824,24.65,19.231,24.65c13.024,0,16.854-6.455,18.854-16.775l-4.488-0.021
		C501.073,94.436,498.583,103.055,489.006,103.247 M487.474,62.259c8.045,0,9.194,10.343,9.194,16.664h-18.962
		C477.706,74.708,477.322,62.259,487.474,62.259"/>
	<path clip-path="url(#SVGID_2_)" fill-rule="evenodd" clip-rule="evenodd" d="M285.726,103.247
		c-10.915,0.219-11.683-13.791-11.491-20.494h28.809c0-13.613-6.017-24.649-19.233-24.649c-12.259,0-19.231,11.036-19.231,24.649
		c0,13.615,5.823,24.65,19.231,24.65c13.025,0,16.856-6.455,18.855-16.775l-4.49-0.021
		C297.794,94.436,295.303,103.055,285.726,103.247 M284.194,62.259c8.045,0,9.194,10.343,9.194,16.664h-18.962
		C274.426,74.708,274.043,62.259,284.194,62.259"/>
	<path clip-path="url(#SVGID_2_)" fill-rule="evenodd" clip-rule="evenodd" d="M460.258,96.112V42.674
		c0-2.202-1.149-4.022-3.064-3.447c-4.214,1.341-8.045,1.915-11.301,2.106v1.916c5.555-0.383,6.13,1.34,6.13,3.256v16.472
		c-2.49-2.299-5.364-4.597-10.535-4.597c-6.512,0-18.579,5.172-18.579,23.369c0,23.939,13.982,25.472,18.196,25.472
		c4.213,0,9.769-3.446,10.918-5.267c0.095-0.383,0.67-0.861,0.861,0c0.191,1.725,1.436,4.31,3.353,3.734
		c4.213-1.34,8.044-1.914,11.3-2.105v-1.916C459.491,102.051,460.258,98.028,460.258,96.112 M452.022,90.366
		c-0.191,10.535-5.746,13.791-10.344,13.791c-10.344-0.191-9.577-15.896-9.577-22.603c0-6.702,0.384-19.918,9.77-18.77
		c9.385,1.15,10.151,11.109,10.151,17.048V90.366z"/>
	<rect x="547.406" y="74.294" clip-path="url(#SVGID_2_)" fill-rule="evenodd" clip-rule="evenodd" width="25.283" height="4.405"/>
	<path clip-path="url(#SVGID_2_)" fill-rule="evenodd" clip-rule="evenodd" d="M512.581,89.834v16.281h2.104l1.916-4.215
		c1.916,1.725,5.938,4.598,11.11,4.598c5.171,0,12.45-2.873,15.322-8.236c2.873-5.363,1.533-14.174-4.979-16.855
		c-5.704-2.347-10.707-5.161-14.557-7.086c-3.064-1.533-3.809-4.593-3.448-6.513c0.575-3.064,3.256-6.321,9.385-6.512
		c6.13-0.192,9.194,4.98,9.961,10.917h2.106V56.891h-1.915l-2.108,3.639c-4.021-2.682-5.745-3.065-9.384-3.065
		c-3.64,0-9.769,1.915-13.216,7.279c-3.447,5.363-2.49,13.79,5.746,17.236c8.236,3.448,12.066,5.556,14.365,6.704
		c2.298,1.15,3.639,5.746,2.106,8.428c-1.532,2.684-4.405,5.748-9.002,5.748s-11.875-3.258-13.6-13.025H512.581z"/>
	<path clip-path="url(#SVGID_2_)" fill-rule="evenodd" clip-rule="evenodd" d="M608.692,71.023c4.597-1.149,9.194-9.385,9.194-14.94
		c0-5.554-2.107-14.94-15.515-14.94h-28.73v2.49c2.873,0,7.853,0.576,7.853,5.364v47.31c0,2.682-0.191,7.086-7.853,7.086v2.682
		H597.2c7.087,0,23.368-0.574,23.75-19.346C620.95,80.409,617.887,72.938,608.692,71.023 M589.73,44.209h9.576
		c7.087,0,9.961,5.168,9.961,11.874c0,8.236-2.49,14.557-9.961,14.557h-9.576V44.209z M599.498,103.01h-9.768V73.705h10.916
		c6.322,0,11.877,4.405,11.877,13.983C612.523,97.264,606.777,103.01,599.498,103.01"/>
	<path clip-path="url(#SVGID_2_)" fill-rule="evenodd" clip-rule="evenodd" d="M699.176,71.258v28.348
		c0,3.447-3.065,4.021-4.788,4.021h-1.149v2.49h20.877v-2.49H712.2c-1.725,0-4.788-0.574-4.788-4.021V71.449
		c-0.191-12.833-11.685-13.215-15.706-13.215c-4.214,0-8.811,2.681-9.768,4.022c-1.114,1.559-2.491,0.957-2.682-0.767
		c-0.192-1.723-0.958-3.447-2.873-2.873c-4.215,1.341-8.045,1.916-11.301,2.108v1.915c8.044-0.383,7.277,3.639,7.277,5.555v31.412
		c0,3.447-3.063,4.021-4.788,4.021h-2.681v2.49h22.409v-2.49h-1.915c-1.725,0-4.788-0.574-4.788-4.021V74.514
		c0-4.214,1.531-10.917,9.384-11.492C697.836,62.447,699.176,67.618,699.176,71.258"/>
	<path clip-path="url(#SVGID_2_)" fill-rule="evenodd" clip-rule="evenodd" d="M718.56,72.218l3.448-13.024h32.561l-27.964,44.244
		h14.938c3.448,0,6.13-1.34,9.77-10.15h1.532l-3.064,12.832h-33.327l27.772-44.245h-12.45c-3.064,0-6.512,0-11.301,10.343H718.56z"
		/>
</g>
</svg>
