<?xml version="1.0" encoding="utf-8"?>
<!-- Generator: Adobe Illustrator 16.0.0, SVG Export Plug-In . SVG Version: 6.00 Build 0)  -->
<!DOCTYPE svg PUBLIC "-//W3C//DTD SVG 1.1//EN" "http://www.w3.org/Graphics/SVG/1.1/DTD/svg11.dtd">
<svg version="1.1" id="Layer_1" xmlns="http://www.w3.org/2000/svg" xmlns:xlink="http://www.w3.org/1999/xlink" x="0px" y="0px"
	 width="762.857px" height="96.12px" viewBox="0 0 762.857 96.12" enable-background="new 0 0 762.857 96.12" xml:space="preserve">
<g>
	<defs>
		<rect id="SVGID_1_" width="762.857" height="96.12"/>
	</defs>
	<clipPath id="SVGID_2_">
		<use xlink:href="#SVGID_1_"  overflow="visible"/>
	</clipPath>
	<path clip-path="url(#SVGID_2_)" fill-rule="evenodd" clip-rule="evenodd" fill="#00AEEF" d="M762.806,92.985l-0.11-17.171
		c0.11-5.508-4.103-11.232-8.207-11.125c3.67-0.321,8.422-5.073,8.207-11.12l0.11-20.089c-0.217-10.584-11.342-19.224-23.762-19.008
		l-24.517-0.109l-45.899-0.107c-2.052,0-2.375,0.756-2.375,2.483l0.106,75.277c0,2.376,0.433,2.59,2.269,2.59l19.873-0.105
		c2.053,0,2.053,0,2.053-2.271V77.112c0-1.729,0-1.836,1.834-1.836h22.14h19.332c4.104,0,4.969,2.483,4.752,5.938l-0.106,11.341
		c0.215,1.945,0.323,2.376,3.022,1.945h20.088C763.236,94.714,762.806,92.985,762.806,92.985 M732.996,54.756
		c0-0.108-8.856-0.108-18.469-0.108h-22.031c-2.159,0-2.159-0.214-1.942-2.701l0.104-11.554c0.11-1.728-0.539-1.836,1.513-1.836
		l22.356-0.109h18.252c3.782,0.217,6.049,2.809,5.832,8.209C738.611,51.624,736.992,54.647,732.996,54.756"/>
	<path clip-path="url(#SVGID_2_)" fill-rule="evenodd" clip-rule="evenodd" fill="#00AEEF" d="M108.325,57.349
		c-3.456,0-6.264,2.807-6.264,6.264c0,3.454,2.808,6.372,6.264,6.372h0.217c3.346-0.107,6.155-2.918,6.155-6.372
		c0-3.349-2.809-6.154-6.155-6.264H108.325z M108.648,58.104c1.187,0.108,2.268,0.539,3.239,1.295
		c2.052,1.729,2.593,4.645,1.189,7.128c-0.972,1.62-2.7,2.484-4.535,2.593c-0.65,0-1.189,0-1.838-0.217
		c-2.268-0.756-3.78-2.807-3.887-5.291c0.107-1.512,0.647-2.81,1.619-3.888c1.08-1.081,2.484-1.62,4.106-1.62H108.648z"/>
	<path clip-path="url(#SVGID_2_)" fill-rule="evenodd" clip-rule="evenodd" fill="#00AEEF" d="M87.588,0.107l-2.16,0.217
		L82.08,0.755l-5.076,1.512l-4.752,2.916l-4.428,3.889l-3.132,4.86l-1.728,3.995l-0.54,2.268l-1.512,5.832
		c-1.297-0.324-2.268-0.324-3.564-0.324c-1.404,0-2.807,0.109-3.889,0.216l-1.402-5.94c-0.973-3.996-2.809-7.02-4.969-10.476
		l-4.536-4.536l-5.508-2.916L32.4,0.541l-3.348-0.433L26.892,0H0.108v2.808h26.784c3.241,0.108,5.94,0.863,9.072,1.728l4.968,2.699
		l3.996,4.104c2.053,3.132,3.564,5.616,4.428,9.396l1.512,5.616c-0.757,0.324-1.62,0.649-2.376,0.973l-1.511-6.049
		c-0.756-3.132-2.269-5.615-3.998-8.424L39.42,9.179l-4.428-2.376l-3.672-1.08l-2.7-0.431l-1.836-0.109H0.108v2.808h26.568
		c2.592,0.108,4.752,0.648,7.236,1.404l3.78,2.052l3.132,3.133c1.512,2.484,2.809,4.535,3.456,7.452l1.729,6.479
		c-0.757,0.54-1.513,1.08-2.161,1.62l-1.944-7.559c-0.647-2.377-1.728-4.32-3.024-6.481l-2.7-2.591l-3.132-1.729
		c-2.268-0.756-4.104-1.187-6.48-1.296l-26.46,0.109v2.7h26.46c4.428,0.216,7.02,1.403,10.152,4.643
		c1.08,1.729,1.944,3.348,2.483,5.401l2.269,9.179c-0.648,0.649-1.188,1.405-1.728,2.376l-2.916-11.016
		c-1.296-5.291-5.076-7.884-10.369-8.1L0.108,15.876v2.591h26.245c3.995,0.325,6.911,1.945,7.775,6.157L37.8,38.555
		c-0.756,0.972-1.189,2.916-1.511,4.105l-4.537-17.496c-0.864-2.916-2.376-4.104-5.399-4.213H0.108L0,23.759h26.244
		c1.728,0,2.485,0.432,2.808,2.16l5.724,22.141L29.16,70.307c-0.324,1.62-1.08,2.162-2.807,2.162H0.108v2.698h26.245
		c3.023-0.108,4.643-1.295,5.506-4.213l7.778-29.914c2.267-5.292,5.183-8.964,10.474-11.232c3.242-1.187,7.022-1.621,10.37-1.187
		l-0.756,2.699c-3.242-0.54-6.805,0-9.721,1.187c-3.995,2.053-6.265,5.292-7.992,9.396l-7.777,29.701
		c-0.971,4.21-3.78,5.83-7.776,6.047H0.108v2.593l26.46,0.214c5.291-0.322,9.072-2.807,10.368-8.206l7.669-29.484
		c1.62-3.455,3.13-5.939,6.587-7.776c2.376-0.972,5.617-1.296,8.209-1.188l-0.649,2.485c-2.053-0.109-4.752,0.215-6.48,0.971
		c-2.808,1.296-4.104,3.673-5.4,6.372l-7.559,29.268c-0.541,2.051-1.405,3.562-2.485,5.399c-3.24,3.132-5.832,4.427-10.26,4.644
		H0.108v2.593l26.568,0.108c2.268-0.108,4.104-0.434,6.372-1.189l3.241-1.729l2.698-2.698c1.297-2.159,2.376-3.996,3.025-6.48
		l7.56-29.05c0.648-1.513,1.728-3.241,3.024-4.212c1.62-0.972,3.887-1.513,5.724-1.513l-0.54,2.592
		c-1.944,0.217-3.888,0.758-4.967,2.376l-0.865,1.513l-0.108,0.107l-7.452,28.835c-0.649,2.918-1.944,4.969-3.456,7.453L37.8,84.671
		l-3.78,2.051c-2.483,0.756-4.644,1.298-7.236,1.405H0.108v2.808h26.784l1.728-0.108l2.808-0.323l3.673-1.188l4.427-2.376
		l3.564-3.563c1.728-2.81,3.24-5.294,3.996-8.531l7.453-28.512c0.322-0.756,0.755-1.405,1.188-1.836
		c0.323-0.109,1.295-0.541,1.836-0.541l-0.541,2.592c-0.432,0-0.756,0.216-0.864,0.865l-6.696,28.08
		c-0.863,3.671-2.483,6.264-4.427,9.396l-4.105,4.102l-4.86,2.593c-3.132,0.973-5.833,1.62-9.18,1.836H0.108v2.702H27l2.16-0.108
		l3.349-0.434l4.643-1.403l5.508-3.023l4.536-4.538c2.16-3.454,3.996-6.478,4.968-10.474l1.512-5.941
		c1.187,0.108,2.376,0.325,3.563,0.325c1.298,0,2.701-0.108,3.889-0.325l1.404,5.833l0.54,2.268l1.728,3.997l3.024,4.751
		l4.428,3.996l4.752,2.807l5.184,1.62l3.24,0.434l2.268,0.108h20.845h6.264v-2.701h-6.264H87.696l-1.944-0.108l-3.023-0.431
		l-4.537-1.406l-4.211-2.59l-3.998-3.457c-2.159-3.349-3.887-6.155-4.751-10.043c-0.54-1.837-0.971-3.349-1.404-5.508
		c0.972-0.325,1.404-0.434,2.159-0.972l1.621,5.94c0.864,3.346,2.375,6.047,4.212,8.962l3.565,3.132l3.779,2.268l4.104,1.298
		l2.7,0.322l1.837,0.108h20.736h6.264V88.02h-6.264H87.912c-2.7-0.108-4.968-0.756-7.559-1.512l-3.242-1.945l-3.13-2.701
		l-2.053-3.346l-1.295-2.81l-0.324-1.726L68.58,67.5c0.756-0.542,1.403-0.756,2.159-1.403l1.945,7.342
		C74.628,81,80.244,85.21,87.912,85.535h20.629h6.264v-2.701h-6.264L88.02,82.726c-6.479-0.322-11.016-3.563-12.635-10.043
		l-2.376-8.856c0.755-0.756,1.079-1.403,1.835-2.481l2.917,10.799c1.296,5.291,4.968,7.884,10.367,8.209h20.413h6.264v-2.81h-6.264
		H88.235c-4.102-0.217-6.911-1.942-7.776-6.155l-3.563-13.608l1.404-4.427l4.536,17.496c0.863,2.915,2.376,4.102,5.399,4.21h20.306
		h6.264l-0.109-2.59h-6.155l-20.197-0.217c-1.728,0-2.485-0.434-2.807-2.159l-5.724-22.032l5.615-22.033
		c0.324-1.619,1.081-2.16,2.807-2.16l20.306-0.108h6.264v-2.591h-6.264H88.235c-3.023,0-4.643,1.294-5.506,4.211l-7.778,29.917
		c-2.483,5.724-5.831,9.72-11.771,11.662c-2.916,0.756-6.047,0.864-8.856,0.434l0.539-2.593c3.242,0.539,6.805,0.325,9.829-1.078
		c3.888-1.945,6.157-5.399,7.884-9.287l7.777-29.702c0.863-4.104,3.78-5.832,7.775-6.155h20.413h6.264v-2.7h-6.264H88.02
		c-5.291,0.323-9.072,2.807-10.368,8.208l-7.669,29.485c-2.483,5.399-5.399,8.314-11.446,8.854h-1.404
		c-0.434,0-1.404-0.108-1.729-0.217l0.54-2.481c2.593,0.108,5.617-0.108,7.667-1.403c1.837-1.406,3.026-3.457,4.105-5.616
		l7.56-29.27c1.728-6.371,6.156-9.721,12.636-10.044l20.629-0.107h6.264v-2.7h-6.264H87.912
		c-7.775,0.431-13.392,4.537-15.336,12.204l-7.56,29.049c-0.432,0.867-0.972,1.837-1.512,2.701
		c-1.619,2.054-4.536,2.701-7.236,2.593l0.431-2.484c2.81,0.108,4.429-0.539,5.941-3.671l7.559-28.837l0.434-1.727l1.187-2.809
		l2.161-3.24l3.023-2.699l3.24-2.053c2.592-0.756,4.968-1.295,7.561-1.512l20.736,0.108h6.264V5.399h-6.264H87.696l-1.728,0.108
		L83.16,5.833l-4.103,1.295l-3.672,2.268l-3.565,3.132c-1.837,2.916-3.457,5.509-4.32,8.964l-7.128,28.512
		c-0.216,0.648-0.647,1.404-1.188,1.513c-0.325,0.431-1.188,0.539-1.945,0.431l0.326-2.268c0.431-0.106,0.54-0.431,0.755-0.539
		l6.804-28.296c0.863-3.779,2.7-6.588,4.752-9.935l3.996-3.565l4.212-2.484l4.536-1.404l3.024-0.432l2.052-0.107h20.845h6.264V0.107
		h-6.264H87.588z"/>
	<path clip-path="url(#SVGID_2_)" fill-rule="evenodd" clip-rule="evenodd" fill="#00AEEF" d="M104.436,59.941
		c-0.108,0.214-0.108,0.539,0,0.753c0.217,0.108,0.541,0.108,0.864,0.217v4.644c0,0.325-0.647,0.434-0.864,0.542
		c-0.108,0.214-0.108,0.647,0.108,0.861h3.997c0.216-0.214,0.216-0.431,0-0.861c-0.325-0.108-0.325,0.105-0.757-0.542v-1.403H108
		c0.216,0,0.324,0.108,0.541,0.325c0.431,0.431,0.755,1.403,0.971,2.051c0,0.108,0.108,0.431,0.217,0.325
		c0,0.105,2.808,0.105,2.808,0.105c0.323-0.105,0.215-0.756,0.107-0.861c-1.728-0.217-1.189-2.054-2.484-2.592
		c2.268-0.109,2.377-3.35,0.323-3.563h-1.942H104.436z M109.296,61.775c0,0.539-0.324,0.756-0.755,0.864
		c-0.217,0.108-0.541,0.108-0.757,0.108v-1.945c0.216-0.108,0.54,0,0.757,0C108.972,60.911,109.296,61.236,109.296,61.775"/>
	<path clip-path="url(#SVGID_2_)" fill-rule="evenodd" clip-rule="evenodd" fill="#00AEEF" d="M622.512,15.984
		c-0.323-1.296-0.864-1.836-2.698-1.621h-16.851h-16.847c-1.62,0.109-1.62,0.865-2.269,1.946L545.94,89.206l-1.729,3.349
		c-0.97,1.837,0.433,1.945,0.433,1.945h1.297h24.407l5.939-11.988c0.756-1.298,0.973-1.406,3.565-1.406
		c7.668,0,15.442,0.108,23.11,0.108c7.668-0.108,15.338-0.108,23.113-0.108c1.835,0,2.051,0.217,2.917,1.945l5.722,11.449h25.488
		c1.729,0.105,1.729-0.65,0.973-2.054L622.512,15.984z M616.68,61.884h-13.717l-13.931-0.108c-1.188,0-0.866-1.187-0.866-1.187
		L602.317,35.1c0.431-0.649,0.539-1.188,0.646-1.08c0.217,0,0.433,0.324,0.974,1.297l13.715,25.272
		C617.76,60.589,618.517,61.775,616.68,61.884"/>
	<path clip-path="url(#SVGID_2_)" fill-rule="evenodd" clip-rule="evenodd" fill="#00AEEF" d="M547.992,72.683V15.444
		c0-0.432-0.647-1.188-1.514-1.08h-0.539l-20.735-0.108c-1.08,0-1.298,0.54-1.298,1.404l-0.104,51.193
		c0,3.671-2.163,5.508-5.726,5.508h-38.231c-2.916,0-5.291-2.701-5.401-5.617v-50.76c0-1.62,0.11-1.62-1.187-1.62h-21.278
		c-1.295-0.216-1.619,0.108-1.726,1.296c0.106,7.452,0,49.573,0.106,56.915c0.217,12.097,10.694,21.492,24.408,21.817
		c19.44,0,29.7-0.108,49.139,0c9.183,0,18.147-5.833,22.033-13.608C547.236,78.299,547.884,75.492,547.992,72.683"/>
	<path clip-path="url(#SVGID_2_)" fill-rule="evenodd" clip-rule="evenodd" fill="#00AEEF" d="M368.927,34.02h40.716
		c3.674,0,5.617,3.348,5.508,7.236h24.086l0.108-7.343c-0.434-11.45-13.934-19.441-24.301-19.441
		c-21.815,0.109-31.646,0.109-53.137,0.109c-10.583,0-19.655,6.263-22.895,14.796c-0.863,2.16-1.296,4.427-1.296,6.696
		c0,0-0.216,36.935,0.108,36.935c0,2.376,0.432,4.644,1.188,6.803c3.023,8.64,11.771,14.581,22.572,14.689
		c21.06,0.105,32.4,0.105,53.352,0.214c13.069-0.214,24.192-9.287,24.192-22.031c0.324-8.423,0.108-16.632,0.108-25.055
		c-17.065,0-34.668,0.108-51.625,0.108c-0.973,0-1.188,0.216-0.862,2.052c0,4.752-0.11,9.503-0.11,14.256
		c0,1.403,0.11,1.403,0.866,1.295h27.539c0.106,4.86-0.433,9.507-6.047,9.83h-39.962c-4.752,0.107-7.236-3.997-7.236-7.776
		l0.108-26.351C361.907,36.18,364.609,34.127,368.927,34.02"/>
	<path clip-path="url(#SVGID_2_)" fill-rule="evenodd" clip-rule="evenodd" fill="#00AEEF" d="M226.044,72.791V15.552
		c0-0.431-0.54-1.08-1.512-1.08h-0.216l-21.059-0.109c-0.973,0-1.404,0.54-1.513,1.405l0.109,51.19c0,3.674-2.162,5.511-5.618,5.616
		h-38.231c-3.023,0-5.292-2.807-5.399-5.723l-0.109-10.045c0-1.726,0.216-1.726-1.187-1.726h-21.277
		c-1.297-0.217-1.62,0.108-1.62,1.295c0.108,7.45-0.107,8.962,0,16.415c0.216,12.097,10.693,21.384,24.516,21.709
		c19.44,0.105,29.7-0.108,49.14,0c9.396,0,18.469-6.05,22.248-14.042C225.396,77.977,226.044,75.384,226.044,72.791"/>
	<path clip-path="url(#SVGID_2_)" fill-rule="evenodd" clip-rule="evenodd" fill="#00AEEF" d="M339.012,90.826l-37.8-74.842
		c-0.432-1.296-0.863-1.836-2.7-1.621h-16.848h-16.847c-1.729,0.109-1.729,0.865-2.377,1.946l-38.123,73.439l-1.512,2.807
		c-0.973,1.837,0.431,1.945,0.431,1.945h1.081h24.623l6.047-11.988c0.65-1.298,0.866-1.406,3.457-1.406
		c7.776,0,15.444,0.108,23.22,0.108c7.561-0.108,15.228-0.108,23.004-0.108c1.836,0,2.052,0.217,2.916,1.945l5.725,11.449h25.594
		h0.109c1.512,0.105,1.512-0.65,0.864-2.054L339.012,90.826z M295.38,61.884h-13.716l-13.932-0.108
		c-1.296,0-0.971-1.187-0.971-1.187L281.016,35.1c0.324-0.649,0.432-1.188,0.648-1.08c0.108,0,0.323,0.324,0.864,1.297
		l13.825,25.272C296.353,60.589,297.108,61.775,295.38,61.884"/>
</g>
</svg>
