<svg xmlns="http://www.w3.org/2000/svg">
<symbol id="cube" viewBox="-34 0 512 512"><path d="M221.703 0L0 128v256l221.703 128 221.703-128V128zM398.22 136.652L221.703 238.566 45.187 136.652l176.516-101.91zM30.086 162.68L206.66 264.62v203.953L30.086 366.63zm206.66 305.894V264.621L413.32 162.68v203.949zm0 0"/></symbol>
<symbol id="facebook" viewBox="0 0 290 290"><path d="M205.807 0h-15.694c-43.62 0-79.107 35.488-79.107 79.108v33.386H84.193a5 5 0 00-5 5v40a5 5 0 005 5h26.811V285a5 5 0 005 5h40a5 5 0 005-5V162.494h39.786a5 5 0 005-5v-40a5 5 0 00-5-5h-39.786V79.108c0-16.05 13.058-29.108 29.107-29.108h15.694a5 5 0 005-5V5a4.998 4.998 0 00-4.998-5z"/></symbol>
<symbol id="hamburger" viewBox="0 0 24 24"><path d="M0 2v2h24V2zm0 9v2h24v-2zm0 9v2h24v-2z"/></symbol>
<symbol id="instagram" viewBox="0 0 290 290"><path d="M250.626 0H39.374C17.663 0 0 17.663 0 39.374v211.252C0 272.338 17.663 290 39.374 290h211.252C272.337 290 290 272.338 290 250.626V39.374C290 17.663 272.337 0 250.626 0zM145 215.846c-35.762 0-64.856-29.094-64.856-64.856 0-35.761 29.095-64.856 64.856-64.856s64.856 29.095 64.856 64.856c0 35.762-29.094 64.856-64.856 64.856zm120.447-112.731H206.85C192.058 85.407 169.823 74.122 145 74.122s-47.058 11.286-61.85 28.993H24.553V46.804c0-14.313 11.645-25.957 25.958-25.957H239.49c14.313 0 25.958 11.644 25.958 25.957v56.311z"/><path d="M145 109.296c-22.989 0-41.694 18.704-41.694 41.693 0 22.99 18.704 41.693 41.694 41.693s41.694-18.703 41.694-41.693c0-22.989-18.705-41.693-41.694-41.693zM233.488 37.491h-25.093c-5.735 0-10.401 4.667-10.401 10.402v25.093c0 5.735 4.665 10.401 10.401 10.401h25.093c5.735 0 10.401-4.665 10.401-10.401V47.893c0-5.736-4.666-10.402-10.401-10.402z"/></symbol>
<symbol id="pinterest" viewBox="0 0 579.148 579.148"><path d="M434.924 38.847C390.561 12.954 342.107.01 289.574.01c-52.54 0-100.992 12.944-145.356 38.837C99.854 64.741 64.725 99.87 38.837 144.228 12.944 188.597 0 237.049 0 289.584c0 58.568 15.955 111.732 47.883 159.486 31.922 47.768 73.771 83.08 125.558 105.949-1.01-26.896.625-49.137 4.902-66.732l37.326-157.607c-6.285-12.314-9.425-27.645-9.425-45.999 0-21.365 5.404-39.217 16.212-53.538 10.802-14.333 24.003-21.5 39.59-21.5 12.564 0 22.246 4.143 29.034 12.448 6.787 8.292 10.184 18.727 10.184 31.292 0 7.797-1.451 17.289-4.334 28.47-2.895 11.187-6.665 24.13-11.31 38.837-4.651 14.701-7.98 26.451-9.994 35.252-3.525 15.33-.63 28.463 8.672 39.4 9.295 10.936 21.616 16.4 36.952 16.4 26.898 0 48.955-14.951 66.176-44.865 17.217-29.914 25.826-66.236 25.826-108.973 0-32.925-10.617-59.701-31.859-80.312-21.242-20.606-50.846-30.918-88.795-30.918-42.486 0-76.862 13.642-103.123 40.906-26.267 27.277-39.401 59.896-39.401 97.84 0 22.625 6.414 41.609 19.229 56.941 4.272 5.029 5.655 10.428 4.149 16.205-.508 1.512-1.511 5.281-3.017 11.309-1.505 6.029-2.515 9.934-3.017 11.689-2.014 8.049-6.787 10.564-14.333 7.541-19.357-8.043-34.064-21.99-44.113-41.85-10.055-19.854-15.08-42.852-15.08-68.996 0-16.842 2.699-33.685 8.103-50.527s13.819-33.115 25.264-48.832c11.432-15.698 25.135-29.596 41.102-41.659 15.961-12.069 35.38-21.738 58.256-29.04 22.871-7.283 47.51-10.93 73.904-10.93 35.693 0 67.744 7.919 96.146 23.751 28.402 15.839 50.086 36.329 65.043 61.463 14.951 25.135 22.436 52.026 22.436 80.692 0 37.705-6.541 71.641-19.607 101.807-13.072 30.166-31.549 53.855-55.43 71.072-23.887 17.215-51.035 25.826-81.445 25.826-15.336 0-29.664-3.58-42.986-10.748-13.33-7.166-22.503-15.648-27.528-25.453-11.31 44.486-18.097 71.018-20.361 79.555-4.78 17.852-14.584 38.457-29.413 61.836 26.897 8.043 54.296 12.062 82.198 12.062 52.534 0 100.987-12.943 145.35-38.83 44.363-25.895 79.492-61.023 105.387-105.393 25.887-44.365 38.838-92.811 38.838-145.352 0-52.54-12.951-100.985-38.838-145.355-25.889-44.334-61.024-79.463-105.387-105.357z"/></symbol>
<symbol id="twitter" viewBox="0 0 321.666 321.666"><path d="M320.518 70.438a3.502 3.502 0 00-4.287-.325c-5.903 3.916-13.86 5.904-20.473 6.914 7.907-6.45 17.13-16.588 17.069-29.652a3.501 3.501 0 00-5.563-2.812c-11.985 8.746-29.164 13.34-35.454 14.807-4.448-7.33-19.746-28.824-46.187-28.824-1.479 0-2.988.07-4.485.207-32.859 3.022-48.781 22.237-56.351 37.825-4.786 9.855-6.888 19.397-7.809 25.699-5.211-4.542-14.3-11.454-27.829-18.371-20.668-10.569-56.166-23.167-107.902-23.167-5.03 0-10.197.119-15.358.354a3.503 3.503 0 00-2.846 1.702 3.497 3.497 0 00-.148 3.313C13.937 81.04 37.69 94.51 53.153 101.18c-8.484 2.248-17.549 6.634-20.388 13.544-1.441 3.508-1.811 9.021 4.608 15.364 9.424 9.312 20.503 14.97 30.265 18.405-7.648 1.361-13.755 3.697-15.735 7.584-.753 1.48-1.612 4.518 1.1 8.246 13.001 17.878 44.162 24.83 57.98 25.964-1.753 4.165-5.404 10.928-12.455 17.626-15.066 14.309-38.822 21.873-68.7 21.874h-.009c-8.119 0-16.833-.55-25.903-1.636a3.499 3.499 0 00-2.821 6.018C40.484 271.42 85.2 291.113 130.41 291.12h.023c49.772 0 98.504-24.472 130.357-65.463 28.367-36.505 39.233-80.199 30.06-120.383 6.128-2.623 19.655-10.379 30.406-30.602a3.499 3.499 0 00-.738-4.234z"/></symbol>
</svg>